<svg version="1.1" id="corporate" xmlns:x="ns_extend;" xmlns:i="ns_ai;" xmlns:graph="ns_graphs;" xmlns="http://www.w3.org/2000/svg" xmlns:xlink="http://www.w3.org/1999/xlink" x="0px" y="0px" viewBox="0 0 434.6 52.9" style="enable-background:new 0 0 434.6 52.9;" xml:space="preserve">
 <style type="text/css">
  .st0{fill:#ED1B2F;}
 </style>
 <metadata>
  <sfw xmlns="ns_sfw;">
   <slices>
   </slices>
   <sliceSourceBounds bottomLeftOrigin="true" height="52.9" width="434.6" x="-135.3" y="11.4">
   </sliceSourceBounds>
  </sfw>
 </metadata>
 <g>
  <g>
   <g>
    <path class="st0" d="M341.6,51.1v-6.6l6.7-0.7c2.3-0.3,3.3-2.4,3.6-2.9l16.6-27.1c1.4-2.1,0-4-1.7-4.2l-8.8-1V1.9h37.9
				c2.1,0,3.5,1.5,4.3,2.7l22.1,33.8c1.7,2.7,3.1,4.8,5.3,5.1l7,0.8v6.8H392v-6.7l5.4-0.7c2.6-0.3,4.7-1.5,2.6-4.6l-2.1-3.1h-30.2
				l-2.3,3.8c-1.4,2.3,0,3.7,2.2,4l5.4,0.7v6.7H341.6 M373.1,27.4h19.1l-9.6-15.2L373.1,27.4">
    </path>
    <path class="st0" d="M313.3,1.9h-48.7v6.7l6.1,0.6c2.3,0.3,3.2,2,3.2,4.2s0,24.5,0,26.5c0,1.8-0.8,3.6-2.8,3.9l-6.6,0.9v6.5
				l48.8,0c22.4,0,32.1-10.9,32.1-25.3C345.4,12.9,335.7,1.9,313.3,1.9 M305.8,41.7h-12.6V11.3h12.6c12,0,17,2.8,17,15.1
				C322.8,38.9,317.8,41.7,305.8,41.7">
    </path>
    <path class="st0" d="M0,51.1h39.4v-6.6l-6.7-0.8c-1.5-0.2-3.1-1.2-3.1-4.5v-7.9h30.3v7.5c0,2.2-0.4,4.3-3,4.6l-6.9,0.8v6.8h39.4
				v-6.8l-7-0.8c-1.4-0.2-2.9-1.3-2.9-4.1V13.9c0-2.6,1-4.4,3-4.6l6.9-0.8V1.9H50.1v6.6l6.9,0.9c2.3,0.3,3,2.1,3,4.6v7.7H29.6v-7.8
				c0-2.9,1.1-4.3,3.2-4.5l6.7-0.8V1.9H0.1v6.7l6.6,0.8c2.6,0.3,3.3,2.2,3.2,4.7V39c0,2.8-0.8,4.5-3.3,4.7L0,44.6L0,51.1">
    </path>
    <path class="st0" d="M91.4,26.3C91.4,10.8,103.9,0,131.7,0c27.6,0,40.1,10.8,40.1,26.3c0,15.9-12.5,26.6-40.1,26.6
				C103.9,52.9,91.4,42.1,91.4,26.3 M131.6,9.5c-11.2,0-17.6,4.2-17.6,16.9c0,13,6.4,17.1,17.6,17.1c11.2,0,17.6-4.2,17.6-17.1
				C149.2,13.6,142.8,9.5,131.6,9.5">
    </path>
    <path class="st0" d="M174,51.1h31.5v-6.6l-6.8-0.8c-1.9-0.2-3.1-1.8-3.1-4.1v-25l26.2,34.5c0.9,1.1,2.5,1.9,4.1,1.9h24.7V13.8
				c0-1.8,0.5-4.1,3-4.5l6.9-0.8V1.9H229v6.6l6.9,0.9c2.4,0.3,3,2.3,3,4.6v24.4l-26-34.3c-1-1.3-2.2-2.2-4.1-2.2H174v6.7l6.6,0.8
				c2.3,0.3,3.2,1.5,3.2,4.7V39c0,3-0.8,4.4-3.3,4.7l-6.5,0.8L174,51.1">
    </path>
   </g>
  </g>
 </g>
</svg>